<?xml version="1.0" encoding="utf-8"?>
<svg viewBox="0 0 324.869 147.84" xmlns="http://www.w3.org/2000/svg">
  <path d="M 133.444 126.451 L 101.684 126.451 L 101.684 90.491 C 101.684 86.044 101.854 81.478 102.194 76.791 C 102.534 72.104 102.897 68.164 103.284 64.971 C 103.671 61.778 103.911 59.748 104.004 58.881 L 103.424 58.881 L 85.014 126.451 L 59.924 126.451 L 41.364 59.031 L 40.784 59.031 C 40.884 59.898 41.151 61.901 41.584 65.041 C 42.017 68.188 42.427 72.104 42.814 76.791 C 43.201 81.478 43.394 86.044 43.394 90.491 L 43.394 126.451 L 13.964 126.451 L 13.964 26.691 L 59.204 26.691 L 74.284 84.251 L 74.864 84.251 L 89.794 26.691 L 133.444 26.691 L 133.444 126.451 ZM 197.099 126.451 L 159.979 126.451 L 124.599 26.691 L 158.819 26.691 L 178.829 93.391 L 179.409 93.391 L 199.569 26.691 L 232.339 26.691 L 197.099 126.451 ZM 315.715 52.211 L 283.095 52.211 L 283.095 126.451 L 251.045 126.451 L 251.045 52.211 L 218.275 52.211 L 218.275 26.691 L 315.715 26.691 L 315.715 52.211 Z" transform="matrix(1, 0, 0, 1, 0, 0)" style="fill: rgb(85, 85, 85); text-transform: uppercase; white-space: pre;"/>
</svg>